Underworld Trilogy
 
http://www.imdb.com/title/tt0320691/
 
http://www.imdb.com/title/tt0401855/
 
http://www.imdb.com/title/tt0834001/

Subs :

N/A

Source  :

Underworld.Extended.2003.BluRay.720p.x264.DTS.PRoDJi

Underworld.Evolution.2006.BluRay.720p.x264.DTS.PRoDJi

Underworld.Rise.of.the.Lycans.2009.BluRay.720p.x264.DTS.PRoDJi

Info :

ID                               : 1
Format                           : AVC
Format/Info                      : Advanced Video Codec
Format profile                   : Baseline@L3.0
Format settings, CABAC           : No
Format settings, ReFrames        : 3 frames
Codec ID                         : avc1
Codec ID/Info                    : Advanced Video Coding
Duration                         : 2h 13mn
Bit rate mode                    : Variable
Bit rate                         : 395 Kbps
Width                            : 464 pixels
Height                           : 224 pixels
Display aspect ratio             : 2.071
Frame rate mode                  : Variable
Frame rate                       : 23.976 fps
Minimum frame rate               : 23.810 fps
Maximum frame rate               : 24.390 fps
Color space                      : YUV
Chroma subsampling               : 4:2:0
Bit depth                        : 8 bits
Scan type                        : Progressive
Bits/(Pixel*Frame)               : 0.159
Stream size                      : 376 MiB (75%)
Writing library                  : x264 core 79

ID                               : 2
Format                           : AAC
Format/Info                      : Advanced Audio Codec
Format version                   : Version 4
Format profile                   : LC
Format settings, SBR             : No
Codec ID                         : 40
Duration                         : 2h 13mn
Bit rate mode                    : Variable
Bit rate                         : 128 Kbps
Maximum bit rate                 : 218 Kbps
Channel(s)                       : 2 channels
Channel positions                : Front: L R
Sampling rate                    : 48.0 KHz
Stream size                      : 122 MiB (24%)
Language                         : English

Screens:
 
http://img299.imageshack.us/img299/7663/underworldevolutioniioo.jpg
 
http://img713.imageshack.us/img713/4456/underworldextendediooom.jpg
 
http://img213.imageshack.us/img213/6900/underworldriseofthelycag.jpg


PLEASE LET THE TORRENT SEED AND SPREAD THE WORD ABOUT IT! 

Let me know what I can do to be your trusted source of Handheld videos.
 
http://thepiratebay.org/user/on.off.on/ -OOO